<mxfile host="app.diagrams.net" modified="2023-12-02T04:14:53.982Z" agent="Mozilla/5.0 (Windows NT 10.0; Win64; x64) AppleWebKit/537.36 (KHTML, like Gecko) Chrome/119.0.0.0 Safari/537.36" etag="Dh51szK-9zqOuxiEUpMw" version="22.1.5" type="github">
  <diagram name="第 1 页" id="zIkm_kwkeSsWBi_6jVLn">
    <mxGraphModel dx="1050" dy="530" grid="1" gridSize="10" guides="1" tooltips="1" connect="1" arrows="1" fold="1" page="1" pageScale="1" pageWidth="827" pageHeight="1169" math="0" shadow="0">
      <root>
        <mxCell id="0" />
        <mxCell id="1" parent="0" />
        <mxCell id="shR67I40rjLUvzXk6YXL-9" style="rounded=0;orthogonalLoop=1;jettySize=auto;html=1;exitX=1;exitY=1;exitDx=0;exitDy=0;entryX=0;entryY=0;entryDx=0;entryDy=0;" edge="1" parent="1" source="shR67I40rjLUvzXk6YXL-1" target="shR67I40rjLUvzXk6YXL-4">
          <mxGeometry relative="1" as="geometry" />
        </mxCell>
        <mxCell id="shR67I40rjLUvzXk6YXL-12" style="rounded=0;orthogonalLoop=1;jettySize=auto;html=1;exitX=0;exitY=1;exitDx=0;exitDy=0;entryX=1;entryY=0;entryDx=0;entryDy=0;" edge="1" parent="1" source="shR67I40rjLUvzXk6YXL-1" target="shR67I40rjLUvzXk6YXL-3">
          <mxGeometry relative="1" as="geometry" />
        </mxCell>
        <mxCell id="shR67I40rjLUvzXk6YXL-1" value="&lt;font style=&quot;font-size: 17px;&quot;&gt;&lt;b&gt;(x1, x2, x3)&lt;/b&gt;&lt;/font&gt;" style="ellipse;whiteSpace=wrap;html=1;aspect=fixed;fillColor=#fff2cc;strokeColor=#d6b656;" vertex="1" parent="1">
          <mxGeometry x="360" y="30" width="100" height="100" as="geometry" />
        </mxCell>
        <mxCell id="shR67I40rjLUvzXk6YXL-13" style="rounded=0;orthogonalLoop=1;jettySize=auto;html=1;exitX=1;exitY=1;exitDx=0;exitDy=0;" edge="1" parent="1" source="shR67I40rjLUvzXk6YXL-3" target="shR67I40rjLUvzXk6YXL-6">
          <mxGeometry relative="1" as="geometry" />
        </mxCell>
        <mxCell id="shR67I40rjLUvzXk6YXL-3" value="&lt;b&gt;&lt;font style=&quot;font-size: 20px;&quot;&gt;x1 &amp;gt; x3&lt;/font&gt;&lt;/b&gt;" style="ellipse;whiteSpace=wrap;html=1;aspect=fixed;fillColor=#d5e8d4;strokeColor=#82b366;" vertex="1" parent="1">
          <mxGeometry x="240" y="150" width="100" height="100" as="geometry" />
        </mxCell>
        <mxCell id="shR67I40rjLUvzXk6YXL-11" style="rounded=0;orthogonalLoop=1;jettySize=auto;html=1;exitX=0;exitY=1;exitDx=0;exitDy=0;" edge="1" parent="1" source="shR67I40rjLUvzXk6YXL-4" target="shR67I40rjLUvzXk6YXL-7">
          <mxGeometry relative="1" as="geometry" />
        </mxCell>
        <mxCell id="shR67I40rjLUvzXk6YXL-4" value="&lt;b&gt;&lt;font style=&quot;font-size: 20px;&quot;&gt;x1 &amp;lt; x3&lt;/font&gt;&lt;/b&gt;" style="ellipse;whiteSpace=wrap;html=1;aspect=fixed;fillColor=#d5e8d4;strokeColor=#82b366;" vertex="1" parent="1">
          <mxGeometry x="490" y="150" width="100" height="100" as="geometry" />
        </mxCell>
        <mxCell id="shR67I40rjLUvzXk6YXL-20" style="edgeStyle=orthogonalEdgeStyle;rounded=0;orthogonalLoop=1;jettySize=auto;html=1;exitX=0.5;exitY=1;exitDx=0;exitDy=0;entryX=0.5;entryY=0;entryDx=0;entryDy=0;" edge="1" parent="1" source="shR67I40rjLUvzXk6YXL-5" target="shR67I40rjLUvzXk6YXL-15">
          <mxGeometry relative="1" as="geometry" />
        </mxCell>
        <mxCell id="shR67I40rjLUvzXk6YXL-5" value="&lt;b&gt;&lt;font style=&quot;font-size: 20px;&quot;&gt;x1 &amp;lt; 50&lt;/font&gt;&lt;/b&gt;" style="ellipse;whiteSpace=wrap;html=1;aspect=fixed;fillColor=#d5e8d4;strokeColor=#82b366;" vertex="1" parent="1">
          <mxGeometry x="160" y="280" width="100" height="100" as="geometry" />
        </mxCell>
        <mxCell id="shR67I40rjLUvzXk6YXL-23" style="edgeStyle=orthogonalEdgeStyle;rounded=0;orthogonalLoop=1;jettySize=auto;html=1;entryX=0.5;entryY=0;entryDx=0;entryDy=0;" edge="1" parent="1" source="shR67I40rjLUvzXk6YXL-6" target="shR67I40rjLUvzXk6YXL-16">
          <mxGeometry relative="1" as="geometry" />
        </mxCell>
        <mxCell id="shR67I40rjLUvzXk6YXL-6" value="&lt;b&gt;&lt;font style=&quot;font-size: 20px;&quot;&gt;x1 &amp;gt; 50&lt;/font&gt;&lt;/b&gt;" style="ellipse;whiteSpace=wrap;html=1;aspect=fixed;fillColor=#d5e8d4;strokeColor=#82b366;" vertex="1" parent="1">
          <mxGeometry x="310" y="280" width="100" height="100" as="geometry" />
        </mxCell>
        <mxCell id="shR67I40rjLUvzXk6YXL-24" style="edgeStyle=orthogonalEdgeStyle;rounded=0;orthogonalLoop=1;jettySize=auto;html=1;entryX=0.5;entryY=0;entryDx=0;entryDy=0;" edge="1" parent="1" source="shR67I40rjLUvzXk6YXL-7" target="shR67I40rjLUvzXk6YXL-17">
          <mxGeometry relative="1" as="geometry" />
        </mxCell>
        <mxCell id="shR67I40rjLUvzXk6YXL-7" value="&lt;span style=&quot;font-size: 20px;&quot;&gt;&lt;b&gt;x3 &amp;lt; 35&lt;/b&gt;&lt;/span&gt;" style="ellipse;whiteSpace=wrap;html=1;aspect=fixed;fillColor=#d5e8d4;strokeColor=#82b366;" vertex="1" parent="1">
          <mxGeometry x="420" y="280" width="100" height="100" as="geometry" />
        </mxCell>
        <mxCell id="shR67I40rjLUvzXk6YXL-14" style="rounded=0;orthogonalLoop=1;jettySize=auto;html=1;exitX=0;exitY=1;exitDx=0;exitDy=0;entryX=0.572;entryY=-0.036;entryDx=0;entryDy=0;entryPerimeter=0;" edge="1" parent="1" source="shR67I40rjLUvzXk6YXL-3" target="shR67I40rjLUvzXk6YXL-5">
          <mxGeometry relative="1" as="geometry" />
        </mxCell>
        <mxCell id="shR67I40rjLUvzXk6YXL-15" value="&lt;b&gt;&lt;font style=&quot;font-size: 20px;&quot;&gt;15 分鐘後會下跌&lt;/font&gt;&lt;/b&gt;" style="ellipse;whiteSpace=wrap;html=1;aspect=fixed;fillColor=#e1d5e7;strokeColor=#9673a6;" vertex="1" parent="1">
          <mxGeometry x="160" y="410" width="100" height="100" as="geometry" />
        </mxCell>
        <mxCell id="shR67I40rjLUvzXk6YXL-16" value="&lt;b&gt;&lt;font style=&quot;font-size: 20px;&quot;&gt;15 分鐘後會上漲&lt;/font&gt;&lt;/b&gt;" style="ellipse;whiteSpace=wrap;html=1;aspect=fixed;fillColor=#e1d5e7;strokeColor=#9673a6;" vertex="1" parent="1">
          <mxGeometry x="310" y="410" width="100" height="100" as="geometry" />
        </mxCell>
        <mxCell id="shR67I40rjLUvzXk6YXL-17" value="&lt;b&gt;&lt;font style=&quot;font-size: 20px;&quot;&gt;15 分鐘後會上漲&lt;/font&gt;&lt;/b&gt;" style="ellipse;whiteSpace=wrap;html=1;aspect=fixed;fillColor=#e1d5e7;strokeColor=#9673a6;" vertex="1" parent="1">
          <mxGeometry x="420" y="410" width="100" height="100" as="geometry" />
        </mxCell>
        <mxCell id="shR67I40rjLUvzXk6YXL-19" value="&lt;b&gt;&lt;font style=&quot;font-size: 20px;&quot;&gt;15 分鐘後會下跌&lt;/font&gt;&lt;/b&gt;" style="ellipse;whiteSpace=wrap;html=1;aspect=fixed;fillColor=#e1d5e7;strokeColor=#9673a6;" vertex="1" parent="1">
          <mxGeometry x="560" y="410" width="100" height="100" as="geometry" />
        </mxCell>
        <mxCell id="shR67I40rjLUvzXk6YXL-25" style="edgeStyle=orthogonalEdgeStyle;rounded=0;orthogonalLoop=1;jettySize=auto;html=1;entryX=0.5;entryY=0;entryDx=0;entryDy=0;" edge="1" parent="1" source="shR67I40rjLUvzXk6YXL-21" target="shR67I40rjLUvzXk6YXL-19">
          <mxGeometry relative="1" as="geometry" />
        </mxCell>
        <mxCell id="shR67I40rjLUvzXk6YXL-21" value="&lt;b&gt;&lt;font style=&quot;font-size: 20px;&quot;&gt;x3 &amp;gt; 35&lt;/font&gt;&lt;/b&gt;" style="ellipse;whiteSpace=wrap;html=1;aspect=fixed;fillColor=#d5e8d4;strokeColor=#82b366;" vertex="1" parent="1">
          <mxGeometry x="560" y="280" width="100" height="100" as="geometry" />
        </mxCell>
        <mxCell id="shR67I40rjLUvzXk6YXL-22" style="rounded=0;orthogonalLoop=1;jettySize=auto;html=1;exitX=1;exitY=1;exitDx=0;exitDy=0;entryX=0.372;entryY=0.044;entryDx=0;entryDy=0;entryPerimeter=0;" edge="1" parent="1" source="shR67I40rjLUvzXk6YXL-4" target="shR67I40rjLUvzXk6YXL-21">
          <mxGeometry relative="1" as="geometry" />
        </mxCell>
      </root>
    </mxGraphModel>
  </diagram>
</mxfile>
